Coordinates
version=1
nRows=29
nColumns=24
inDegrees=yes

Units are S.I. units (second, meters, Newtons, ...)
Angles are in degrees.

endheader
time	pelvis_tilt	pelvis_list	pelvis_rotation	pelvis_tx	pelvis_ty	pelvis_tz	hip_flexion_r	hip_adduction_r	hip_rotation_r	knee_angle_r	ankle_angle_r	subtalar_angle_r	mtp_angle_r	hip_flexion_l	hip_adduction_l	hip_rotation_l	knee_angle_l	ankle_angle_l	subtalar_angle_l	mtp_angle_l	lumbar_extension	lumbar_bending	lumbar_rotation
      0.93000000	     -5.72411599	     -6.90535838	     -3.15848989	     -0.68341770	      1.25769871	     -0.86668337	    -11.76313435	     11.61735667	     14.11923674	     -4.51227078	      9.09596039	     -0.31627420	      7.63924117	     33.83300274	     -1.55189366	      5.89444572	    -10.02012476	     -6.21989032	    -21.48782133	      8.64811993	     -5.61702757	     11.14213023	      2.81645696
      0.93500000	     -5.86846465	     -6.74724814	     -2.99543311	     -0.67591298	      1.25720344	     -0.86718248	    -11.96902126	     11.43067684	     13.43880854	     -4.75394059	      9.09947372	      0.38640462	      7.91671189	     33.90402205	     -1.16802599	      6.19533118	    -10.62887604	     -6.56907196	    -21.58809662	      8.56066142	     -5.13166515	     10.89867801	      2.52775202
      0.94000000	     -5.99613782	     -6.50503629	     -2.94074085	     -0.66825171	      1.25691314	     -0.86751945	    -12.14621293	     11.14264712	     12.80689029	     -5.09249920	      9.16730858	      1.23770309	      8.36941232	     33.84235718	     -0.78015259	      6.30732696	    -11.09433832	     -7.07212128	    -21.83853672	      8.32407170	     -4.65967317	     10.55421508	      2.37814153
      0.94500000	     -6.15641544	     -6.23514104	     -2.93115773	     -0.66044435	      1.25671948	     -0.86776888	    -12.27789474	     10.82770051	     12.27006439	     -5.45295187	      9.10867721	      1.88792741	      8.89426546	     33.75914134	     -0.40195232	      6.35699709	    -11.50111449	     -7.50627115	    -22.07283709	      8.00504365	     -4.13579834	     10.17840279	      2.25590561
      0.95000000	     -6.31580052	     -5.94258559	     -2.96202203	     -0.65257684	      1.25665831	     -0.86792212	    -12.38515740	     10.49003989	     11.82144367	     -5.85052195	      8.97572078	      2.44723152	      9.46568899	     33.63145820	     -0.04322219	      6.31742230	    -11.85100411	     -7.97093826	    -22.20683933	      7.65359444	     -3.61319221	      9.76896945	      2.18649710
      0.95500000	     -6.48747824	     -5.63485864	     -2.99580950	     -0.64462696	      1.25671113	     -0.86803513	    -12.46673168	     10.14028928	     11.40483607	     -6.25435922	      8.72295301	      2.87899094	     10.18802252	     33.48055497	      0.31735568	      6.26752724	    -12.15181864	     -8.44426406	    -22.29873332	      7.20128914	     -3.06507457	      9.33556807	      2.12010064
      0.96000000	     -6.68211662	     -5.30798286	     -3.09173639	     -0.63667135	      1.25688210	     -0.86803026	    -12.44717728	      9.77655934	     11.07024613	     -6.79015152	      8.47066642	      3.32750713	     10.70624310	     33.32283393	      0.64205597	      6.08589175	    -12.40793871	     -8.88403239	    -22.35347117	      6.92174544	     -2.50420539	      8.87935340	      2.12698688
      0.96500000	     -6.85678070	     -4.97664609	     -3.11448005	     -0.62865162	      1.25714498	     -0.86809503	    -12.43418191	      9.41419831	     10.61322596	     -7.32972839	      8.09943034	      3.77329248	     11.38849771	     33.10956302	      1.01028633	      6.01084810	    -12.60187292	     -9.33295010	    -22.44896366	      6.53867759	     -1.94306386	      8.40746305	      2.04423373
      0.97000000	     -7.04042104	     -4.65223606	     -3.13322933	     -0.62066470	      1.25749925	     -0.86814037	    -12.36228629	      9.06642711	     10.17914297	     -7.93147951	      7.65843634	      4.16364081	     12.13725544	     32.89155089	      1.36494069	      5.93856294	    -12.77233066	     -9.75847596	    -22.51595866	      6.12927958	     -1.37844624	      7.93817489	      1.97575076
      0.97500000	     -7.20523369	     -4.34287354	     -3.09030111	     -0.61271285	      1.25793318	     -0.86823058	    -12.27320330	      8.74507269	      9.65621188	     -8.57094299	      7.12703171	      4.49857322	     12.97067007	     32.66089682	      1.73607097	      5.93393104	    -12.95687497	    -10.13769950	    -22.56937889	      5.69495665	     -0.83308593	      7.46184826	      1.90286424
      0.98000000	     -7.36732044	     -4.06166791	     -3.00913116	     -0.60484905	      1.25844040	     -0.86834778	    -12.12584681	      8.46321716	      9.10721093	     -9.29172180	      6.50856691	      4.82150774	     13.72447863	     32.42692624	      2.09378867	      5.96238606	    -13.13478472	    -10.45780086	    -22.59256558	      5.31893368	     -0.30405905	      7.00688291	      1.77620545
      0.98500000	     -7.51797709	     -3.79656004	     -2.89202160	     -0.59707850	      1.25904931	     -0.86850038	    -11.92647144	      8.20132115	      8.51597958	    -10.09058157	      5.83159520	      5.16388804	     14.60396948	     32.15745348	      2.44972296	      6.04494192	    -13.26510396	    -10.76453386	    -22.61345020	      4.87474908	      0.19852003	      6.55597709	      1.63403466
      0.99000000	     -7.67156170	     -3.58240058	     -2.67844683	     -0.58942044	      1.25967230	     -0.86876917	    -11.66931193	      8.00205806	      7.78345334	    -10.95353606	      5.04954382	      5.53526637	     15.32959197	     31.93167413	      2.81044897	      6.24194139	    -13.45908501	    -10.97739110	    -22.59633293	      4.53030055	      0.69048218	      6.14470761	      1.38890235
      0.99500000	     -7.79128714	     -3.42218041	     -2.37618047	     -0.58193788	      1.26033824	     -0.86914624	    -11.38388541	      7.86278442	      6.92721271	    -11.89085862	      4.17112821	      5.90643378	     15.97048608	     31.70825575	      3.16816449	      6.53762883	    -13.71130678	    -11.11223230	    -22.56307949	      4.22538235	      1.11537067	      5.77042594	      1.05990155
      1.00000000	     -7.92669419	     -3.27795989	     -2.02280686	     -0.57455581	      1.26106298	     -0.86959744	    -11.01094683	      7.73039999	      5.98442307	    -12.91271788	      3.24766141	      6.39353899	     16.71246060	     31.46707751	      3.53275982	      6.92090588	    -13.89149156	    -11.23590694	    -22.51759688	      3.84264093	      1.54621250	      5.40166884	      0.68731225
      1.00500000	     -8.03105401	     -3.19458418	     -1.57467262	     -0.56737628	      1.26179910	     -0.87018283	    -10.60519416	      7.65576256	      4.90725547	    -14.00754596	      2.21491932	      6.85853083	     17.35683110	     31.24002914	      3.89169994	      7.41016787	    -14.14413433	    -11.26403776	    -22.43053182	      3.50441518	      1.91303011	      5.08393905	      0.22239960
      1.01000000	     -8.10775321	     -3.17196372	     -1.04492361	     -0.56042502	      1.26255332	     -0.87088740	    -10.15512798	      7.63415247	      3.72681737	    -15.18239586	      1.07314519	      7.27417465	     17.80966160	     31.02857975	      4.23638649	      7.99398590	    -14.46344494	    -11.19350242	    -22.31002784	      3.27691521	      2.20595643	      4.81387377	     -0.32568129
      1.01500000	     -8.19018753	     -3.16430767	     -0.46030110	     -0.55360605	      1.26333137	     -0.87168160	     -9.62314235	      7.60002477	      2.42738318	    -16.44748141	     -0.12283397	      7.78930109	     18.23401314	     30.80629188	      4.59214884	      8.65163372	    -14.74166792	    -11.09670639	    -22.17255990	      3.03737354	      2.49040724	      4.55214096	     -0.93176816
      1.02000000	     -8.28282867	     -3.15255583	      0.15846626	     -0.54688848	      1.26411333	     -0.87254517	     -9.00162388	      7.51804247	      1.00837986	    -17.81673873	     -1.33666458	      8.43620474	     18.66824852	     30.56131349	      4.96451641	      9.35545454	    -14.95523042	    -10.98666026	    -22.03069504	      2.69391502	      2.78031505	      4.27704839	     -1.54681321
      1.02500000	     -8.34078592	     -3.19769388	      0.81770501	     -0.54040429	      1.26493785	     -0.87345895	     -8.38377759	      7.48658129	     -0.35572054	    -19.17942687	     -2.78210958	      8.72259145	     18.88128942	     30.30351231	      5.29375628	     10.10371272	    -15.19269292	    -10.81070087	    -21.81624091	      2.57449578	      2.98246782	      4.06581432	     -2.25870774
      1.03000000	     -8.41530689	     -3.19178535	      1.47879149	     -0.53396547	      1.26568297	     -0.87442898	     -7.64337344	      7.31540383	     -1.94134907	    -20.72716889	     -4.04350906	      9.42599113	     19.07922635	     30.04743951	      5.67688022	     10.81333209	    -15.41902425	    -10.57405157	    -21.67264929	      2.25105457	      3.20602549	      3.78789079	     -2.89310531
      1.03500000	     -8.46994847	     -3.19060016	      2.12676002	     -0.52763261	      1.26649108	     -0.87537804	     -6.91223053	      7.12484018	     -3.42701086	    -22.24915583	     -5.49750611	      9.83340219	     19.00810693	     29.73220926	      6.03229633	     11.50411149	    -15.57608407	    -10.36466778	    -21.49094843	      1.76431170	      3.38086704	      3.52767434	     -3.57292474
      1.04000000	     -8.54769642	     -3.19018484	      2.75829638	     -0.52140338	      1.26725418	     -0.87633273	     -6.11110160	      6.89125974	     -4.88827631	    -23.82190507	     -6.92792365	     10.11980669	     18.97419881	     29.43073631	      6.36889047	     12.16280513	    -15.70591473	    -10.05468751	    -21.26072461	      1.67414295	      3.57022680	      3.27468635	     -4.21309262
      1.04500000	     -8.60379720	     -3.19278812	      3.38222488	     -0.51529606	      1.26806992	     -0.87727430	     -5.31397654	      6.63678386	     -6.27588602	    -25.38160161	     -8.41957007	     10.15261871	     18.92763800	     29.07044778	      6.68123808	     12.80028280	    -15.75759706	     -9.79766356	    -21.04117640	      1.61437734	      3.71149603	      3.03437764	     -4.87997834
      1.05000000	     -8.69737735	     -3.17549748	      3.99927684	     -0.50925837	      1.26877272	     -0.87828344	     -4.42815473	      6.28391163	     -7.72963162	    -27.03469187	     -9.75165482	     10.44290221	     18.27256575	     28.73922012	      7.01907751	     13.44354586	    -15.80300131	     -9.49275158	    -20.89101687	      1.27166807	      3.88814455	      2.77773865	     -5.53641150
      1.05500000	     -8.73813444	     -3.21396006	      4.62331456	     -0.50343323	      1.26954376	     -0.87929213	     -3.59074017	      5.99820715	     -9.05076444	    -28.62101371	    -11.10571794	     10.17665530	     18.06035332	     28.36186671	      7.28951944	     14.08730611	    -15.83720848	     -9.15443991	    -20.72488201	      1.21081815	      3.96959895	      2.59685339	     -6.22301776
      1.06000000	     -8.80151708	     -3.25901232	      5.24305004	     -0.49772287	      1.27026302	     -0.88034463	     -2.69108565	      5.67225414	    -10.35630538	    -30.24928295	    -12.31075185	      9.90490393	     17.70447755	     27.99769146	      7.54976497	     14.74066497	    -15.84052876	     -8.83126101	    -20.57152457	      1.11024364	      4.06964521	      2.43326091	     -6.90455329
      1.06500000	     -8.89553760	     -3.31900263	      5.83549750	     -0.49218178	      1.27093503	     -0.88141404	     -1.71350193	      5.33014149	    -11.56701243	    -31.92519574	    -13.40871090	      9.62753834	     16.35152367	     27.66632971	      7.78406997	     15.39332157	    -15.82576584	     -8.56925264	    -20.41316859	      0.74302266	      4.18399148	      2.29476686	     -7.50537469
      1.07000000	     -8.89355394	     -3.39630014	      6.44780048	     -0.48680377	      1.27170133	     -0.88249526	     -0.83851672	      4.99893168	    -12.74881991	    -33.52993368	    -14.28950174	      9.03926409	     16.18388014	     27.22579931	      7.98398711	     16.03717598	    -15.77465362	     -8.28272562	    -20.23390302	      0.73815009	      4.16027422	      2.19632242	     -8.16749105
